# Blender 3.3.0
# www.blender.org
mtllib sauce_zfyu.mtl
o Cylinder004
v 0.000000 0.000000 0.000000
v -0.637256 0.000000 -0.000000
v -0.598825 0.000000 -0.217955
v -0.488166 0.000000 -0.409620
v -0.318628 0.000000 -0.551880
v -0.110658 0.000000 -0.627575
v 0.110659 0.000000 -0.627575
v 0.318628 0.000000 -0.551880
v 0.488167 0.000000 -0.409620
v 0.598825 0.000000 -0.217954
v 0.637256 0.000000 0.000000
v 0.598825 -0.000000 0.217954
v 0.488167 -0.000000 0.409620
v 0.318628 -0.000000 0.551880
v 0.110659 -0.000000 0.627575
v -0.110658 -0.000000 0.627575
v -0.318628 -0.000000 0.551880
v -0.488166 -0.000000 0.409621
v -0.598825 -0.000000 0.217955
v -0.637256 0.630223 -0.000000
v -0.598825 0.630223 -0.217954
v -0.488166 0.630223 -0.409620
v -0.318628 0.630223 -0.551880
v -0.110658 0.630223 -0.627575
v 0.110659 0.630223 -0.627575
v 0.318628 0.630223 -0.551880
v 0.488167 0.630223 -0.409620
v 0.598825 0.630223 -0.217954
v 0.637256 0.630223 0.000000
v 0.598825 0.630223 0.217954
v 0.488167 0.630223 0.409620
v 0.318628 0.630223 0.551880
v 0.110659 0.630223 0.627575
v -0.110658 0.630223 0.627575
v -0.318628 0.630223 0.551880
v -0.488166 0.630223 0.409621
v -0.598825 0.630223 0.217955
v -0.637256 1.260446 -0.000000
v -0.598825 1.260446 -0.217954
v -0.488166 1.260446 -0.409620
v -0.318628 1.260446 -0.551880
v -0.110658 1.260446 -0.627575
v 0.110659 1.260446 -0.627575
v 0.318628 1.260446 -0.551880
v 0.488167 1.260446 -0.409620
v 0.598825 1.260446 -0.217954
v 0.637256 1.260446 0.000000
v 0.598825 1.260446 0.217954
v 0.488167 1.260446 0.409620
v 0.318628 1.260446 0.551880
v 0.110659 1.260446 0.627575
v -0.110658 1.260446 0.627575
v -0.318628 1.260446 0.551880
v -0.488166 1.260446 0.409621
v -0.598825 1.260446 0.217955
v -0.637256 1.890669 -0.000000
v -0.598825 1.890669 -0.217954
v -0.488166 1.890669 -0.409620
v -0.318628 1.890669 -0.551880
v -0.110658 1.890669 -0.627575
v 0.110659 1.890669 -0.627575
v 0.318628 1.890669 -0.551880
v 0.488167 1.890669 -0.409620
v 0.598825 1.890669 -0.217954
v 0.637256 1.890669 0.000000
v 0.598825 1.890669 0.217954
v 0.488167 1.890669 0.409620
v 0.318628 1.890669 0.551880
v 0.110659 1.890669 0.627575
v -0.110658 1.890669 0.627575
v -0.318628 1.890669 0.551880
v -0.488166 1.890669 0.409621
v -0.598825 1.890669 0.217955
v -0.637256 2.520892 0.000000
v -0.598825 2.520892 -0.217954
v -0.488166 2.520892 -0.409620
v -0.318628 2.520892 -0.551880
v -0.110658 2.520892 -0.627575
v 0.110659 2.520892 -0.627575
v 0.318628 2.520892 -0.551880
v 0.488167 2.520892 -0.409620
v 0.598825 2.520892 -0.217954
v 0.637256 2.520892 0.000000
v 0.598825 2.520892 0.217954
v 0.488167 2.520892 0.409620
v 0.318628 2.520892 0.551880
v 0.110659 2.520892 0.627575
v -0.110658 2.520892 0.627575
v -0.318628 2.520892 0.551880
v -0.488166 2.520892 0.409621
v -0.598825 2.520892 0.217955
v -0.637256 3.151114 0.000000
v -0.598825 3.151114 -0.217954
v -0.488166 3.151114 -0.409620
v -0.318628 3.151114 -0.551880
v -0.110658 3.151114 -0.627575
v 0.110659 3.151114 -0.627575
v 0.318628 3.151114 -0.551880
v 0.488167 3.151114 -0.409620
v 0.598825 3.151114 -0.217954
v 0.637256 3.151114 0.000000
v 0.598825 3.151114 0.217954
v 0.488167 3.151114 0.409620
v 0.318628 3.151114 0.551880
v 0.110659 3.151114 0.627575
v -0.110658 3.151114 0.627575
v -0.318628 3.151114 0.551880
v -0.488166 3.151114 0.409621
v -0.598825 3.151114 0.217955
v -0.000000 3.151114 0.000000
vn -0.0000 -1.0000 -0.0000
vn -1.0000 -0.0000 -0.0000
vn -0.9397 -0.0000 -0.3420
vn -0.7660 -0.0000 -0.6428
vn -0.5000 -0.0000 -0.8660
vn -0.1736 -0.0000 -0.9848
vn 0.1736 -0.0000 -0.9848
vn 0.5000 -0.0000 -0.8660
vn 0.7660 -0.0000 -0.6428
vn 0.9397 -0.0000 -0.3420
vn 1.0000 -0.0000 -0.0000
vn 0.9397 -0.0000 0.3420
vn 0.7660 -0.0000 0.6428
vn 0.5000 -0.0000 0.8660
vn 0.1736 -0.0000 0.9848
vn -0.1736 -0.0000 0.9848
vn -0.5000 -0.0000 0.8660
vn -0.7660 -0.0000 0.6428
vn -0.9397 -0.0000 0.3420
vn -0.0000 1.0000 -0.0000
vt 0.534264 -0.005496
vt 0.784264 -0.005496
vt 0.728708 -0.005496
vt 0.673153 -0.005496
vt 0.617597 -0.005496
vt 0.562042 -0.005496
vt 0.506486 -0.005496
vt 0.450931 -0.005496
vt 0.395375 -0.005496
vt 0.339820 -0.005496
vt 0.284264 -0.005496
vt 0.228708 -0.005496
vt 0.173153 -0.005496
vt 0.117597 -0.005496
vt 0.062042 -0.005496
vt 0.006486 -0.005496
vt 1.006486 -0.005496
vt 0.950931 -0.005496
vt 0.895375 -0.005496
vt 0.839820 -0.005496
vt 0.784264 0.194504
vt 0.728708 0.194504
vt 0.673153 0.194504
vt 0.617597 0.194504
vt 0.562042 0.194504
vt 0.506486 0.194504
vt 0.450931 0.194504
vt 0.395375 0.194504
vt 0.339820 0.194504
vt 0.284264 0.194504
vt 0.228708 0.194504
vt 0.173153 0.194504
vt 0.117597 0.194504
vt 0.062042 0.194504
vt 0.006486 0.194504
vt 1.006486 0.194504
vt 0.950931 0.194504
vt 0.895375 0.194504
vt 0.839820 0.194504
vt 0.784264 0.394504
vt 0.728708 0.394504
vt 0.673153 0.394504
vt 0.617597 0.394504
vt 0.562042 0.394504
vt 0.506486 0.394504
vt 0.450931 0.394504
vt 0.395375 0.394504
vt 0.339820 0.394504
vt 0.284264 0.394504
vt 0.228708 0.394504
vt 0.173153 0.394504
vt 0.117597 0.394504
vt 0.062042 0.394504
vt 0.006486 0.394504
vt 1.006486 0.394504
vt 0.950931 0.394504
vt 0.895375 0.394504
vt 0.839820 0.394504
vt 0.784264 0.594504
vt 0.728708 0.594504
vt 0.673153 0.594504
vt 0.617597 0.594504
vt 0.562042 0.594504
vt 0.506486 0.594504
vt 0.450931 0.594504
vt 0.395375 0.594504
vt 0.339820 0.594504
vt 0.284264 0.594504
vt 0.228708 0.594504
vt 0.173153 0.594504
vt 0.117597 0.594504
vt 0.062042 0.594504
vt 0.006486 0.594504
vt 1.006486 0.594504
vt 0.950931 0.594504
vt 0.895375 0.594504
vt 0.839820 0.594504
vt 0.784264 0.794504
vt 0.728708 0.794504
vt 0.673153 0.794504
vt 0.617597 0.794504
vt 0.562042 0.794504
vt 0.506486 0.794504
vt 0.450931 0.794504
vt 0.395375 0.794504
vt 0.339820 0.794504
vt 0.284264 0.794504
vt 0.228708 0.794504
vt 0.173153 0.794504
vt 0.117597 0.794504
vt 0.062042 0.794504
vt 0.006486 0.794504
vt 1.006486 0.794504
vt 0.950931 0.794504
vt 0.895375 0.794504
vt 0.839820 0.794504
vt 0.784264 0.994504
vt 0.728708 0.994504
vt 0.673153 0.994504
vt 0.617597 0.994504
vt 0.562042 0.994504
vt 0.506486 0.994504
vt 0.450931 0.994504
vt 0.395375 0.994504
vt 0.339820 0.994504
vt 0.284264 0.994504
vt 0.228708 0.994504
vt 0.173153 0.994504
vt 0.117597 0.994504
vt 0.062042 0.994504
vt 0.006486 0.994504
vt 1.006486 0.994504
vt 0.950931 0.994504
vt 0.895375 0.994504
vt 0.839820 0.994504
vt 0.534264 0.994504
s 1
usemtl 03_-_Default.001
f 1/1/1 2/2/1 3/3/1
f 1/1/1 3/3/1 4/4/1
f 1/1/1 4/4/1 5/5/1
f 1/1/1 5/5/1 6/6/1
f 1/1/1 6/6/1 7/7/1
f 1/1/1 7/7/1 8/8/1
f 1/1/1 8/8/1 9/9/1
f 1/1/1 9/9/1 10/10/1
f 1/1/1 10/10/1 11/11/1
f 1/1/1 11/11/1 12/12/1
f 1/1/1 12/12/1 13/13/1
f 1/1/1 13/13/1 14/14/1
f 1/1/1 14/14/1 15/15/1
f 1/1/1 15/15/1 16/16/1
f 1/1/1 16/17/1 17/18/1
f 1/1/1 17/18/1 18/19/1
f 1/1/1 18/19/1 19/20/1
f 1/1/1 19/20/1 2/2/1
f 2/2/2 20/21/2 21/22/3
f 2/2/2 21/22/3 3/3/3
f 3/3/3 21/22/3 22/23/4
f 3/3/3 22/23/4 4/4/4
f 4/4/4 22/23/4 23/24/5
f 4/4/4 23/24/5 5/5/5
f 5/5/5 23/24/5 24/25/6
f 5/5/5 24/25/6 6/6/6
f 6/6/6 24/25/6 25/26/7
f 6/6/6 25/26/7 7/7/7
f 7/7/7 25/26/7 26/27/8
f 7/7/7 26/27/8 8/8/8
f 8/8/8 26/27/8 27/28/9
f 8/8/8 27/28/9 9/9/9
f 9/9/9 27/28/9 28/29/10
f 9/9/9 28/29/10 10/10/10
f 10/10/10 28/29/10 29/30/11
f 10/10/10 29/30/11 11/11/11
f 11/11/11 29/30/11 30/31/12
f 11/11/11 30/31/12 12/12/12
f 12/12/12 30/31/12 31/32/13
f 12/12/12 31/32/13 13/13/13
f 13/13/13 31/32/13 32/33/14
f 13/13/13 32/33/14 14/14/14
f 14/14/14 32/33/14 33/34/15
f 14/14/14 33/34/15 15/15/15
f 15/15/15 33/34/15 34/35/16
f 15/15/15 34/35/16 16/16/16
f 16/17/16 34/36/16 35/37/17
f 16/17/16 35/37/17 17/18/17
f 17/18/17 35/37/17 36/38/18
f 17/18/17 36/38/18 18/19/18
f 18/19/18 36/38/18 37/39/19
f 18/19/18 37/39/19 19/20/19
f 19/20/19 37/39/19 20/21/2
f 19/20/19 20/21/2 2/2/2
f 20/21/2 38/40/2 39/41/3
f 20/21/2 39/41/3 21/22/3
f 21/22/3 39/41/3 40/42/4
f 21/22/3 40/42/4 22/23/4
f 22/23/4 40/42/4 41/43/5
f 22/23/4 41/43/5 23/24/5
f 23/24/5 41/43/5 42/44/6
f 23/24/5 42/44/6 24/25/6
f 24/25/6 42/44/6 43/45/7
f 24/25/6 43/45/7 25/26/7
f 25/26/7 43/45/7 44/46/8
f 25/26/7 44/46/8 26/27/8
f 26/27/8 44/46/8 45/47/9
f 26/27/8 45/47/9 27/28/9
f 27/28/9 45/47/9 46/48/10
f 27/28/9 46/48/10 28/29/10
f 28/29/10 46/48/10 47/49/11
f 28/29/10 47/49/11 29/30/11
f 29/30/11 47/49/11 48/50/12
f 29/30/11 48/50/12 30/31/12
f 30/31/12 48/50/12 49/51/13
f 30/31/12 49/51/13 31/32/13
f 31/32/13 49/51/13 50/52/14
f 31/32/13 50/52/14 32/33/14
f 32/33/14 50/52/14 51/53/15
f 32/33/14 51/53/15 33/34/15
f 33/34/15 51/53/15 52/54/16
f 33/34/15 52/54/16 34/35/16
f 34/36/16 52/55/16 53/56/17
f 34/36/16 53/56/17 35/37/17
f 35/37/17 53/56/17 54/57/18
f 35/37/17 54/57/18 36/38/18
f 36/38/18 54/57/18 55/58/19
f 36/38/18 55/58/19 37/39/19
f 37/39/19 55/58/19 38/40/2
f 37/39/19 38/40/2 20/21/2
f 38/40/2 56/59/2 57/60/3
f 38/40/2 57/60/3 39/41/3
f 39/41/3 57/60/3 58/61/4
f 39/41/3 58/61/4 40/42/4
f 40/42/4 58/61/4 59/62/5
f 40/42/4 59/62/5 41/43/5
f 41/43/5 59/62/5 60/63/6
f 41/43/5 60/63/6 42/44/6
f 42/44/6 60/63/6 61/64/7
f 42/44/6 61/64/7 43/45/7
f 43/45/7 61/64/7 62/65/8
f 43/45/7 62/65/8 44/46/8
f 44/46/8 62/65/8 63/66/9
f 44/46/8 63/66/9 45/47/9
f 45/47/9 63/66/9 64/67/10
f 45/47/9 64/67/10 46/48/10
f 46/48/10 64/67/10 65/68/11
f 46/48/10 65/68/11 47/49/11
f 47/49/11 65/68/11 66/69/12
f 47/49/11 66/69/12 48/50/12
f 48/50/12 66/69/12 67/70/13
f 48/50/12 67/70/13 49/51/13
f 49/51/13 67/70/13 68/71/14
f 49/51/13 68/71/14 50/52/14
f 50/52/14 68/71/14 69/72/15
f 50/52/14 69/72/15 51/53/15
f 51/53/15 69/72/15 70/73/16
f 51/53/15 70/73/16 52/54/16
f 52/55/16 70/74/16 71/75/17
f 52/55/16 71/75/17 53/56/17
f 53/56/17 71/75/17 72/76/18
f 53/56/17 72/76/18 54/57/18
f 54/57/18 72/76/18 73/77/19
f 54/57/18 73/77/19 55/58/19
f 55/58/19 73/77/19 56/59/2
f 55/58/19 56/59/2 38/40/2
f 56/59/2 74/78/2 75/79/3
f 56/59/2 75/79/3 57/60/3
f 57/60/3 75/79/3 76/80/4
f 57/60/3 76/80/4 58/61/4
f 58/61/4 76/80/4 77/81/5
f 58/61/4 77/81/5 59/62/5
f 59/62/5 77/81/5 78/82/6
f 59/62/5 78/82/6 60/63/6
f 60/63/6 78/82/6 79/83/7
f 60/63/6 79/83/7 61/64/7
f 61/64/7 79/83/7 80/84/8
f 61/64/7 80/84/8 62/65/8
f 62/65/8 80/84/8 81/85/9
f 62/65/8 81/85/9 63/66/9
f 63/66/9 81/85/9 82/86/10
f 63/66/9 82/86/10 64/67/10
f 64/67/10 82/86/10 83/87/11
f 64/67/10 83/87/11 65/68/11
f 65/68/11 83/87/11 84/88/12
f 65/68/11 84/88/12 66/69/12
f 66/69/12 84/88/12 85/89/13
f 66/69/12 85/89/13 67/70/13
f 67/70/13 85/89/13 86/90/14
f 67/70/13 86/90/14 68/71/14
f 68/71/14 86/90/14 87/91/15
f 68/71/14 87/91/15 69/72/15
f 69/72/15 87/91/15 88/92/16
f 69/72/15 88/92/16 70/73/16
f 70/74/16 88/93/16 89/94/17
f 70/74/16 89/94/17 71/75/17
f 71/75/17 89/94/17 90/95/18
f 71/75/17 90/95/18 72/76/18
f 72/76/18 90/95/18 91/96/19
f 72/76/18 91/96/19 73/77/19
f 73/77/19 91/96/19 74/78/2
f 73/77/19 74/78/2 56/59/2
f 74/78/2 92/97/2 93/98/3
f 74/78/2 93/98/3 75/79/3
f 75/79/3 93/98/3 94/99/4
f 75/79/3 94/99/4 76/80/4
f 76/80/4 94/99/4 95/100/5
f 76/80/4 95/100/5 77/81/5
f 77/81/5 95/100/5 96/101/6
f 77/81/5 96/101/6 78/82/6
f 78/82/6 96/101/6 97/102/7
f 78/82/6 97/102/7 79/83/7
f 79/83/7 97/102/7 98/103/8
f 79/83/7 98/103/8 80/84/8
f 80/84/8 98/103/8 99/104/9
f 80/84/8 99/104/9 81/85/9
f 81/85/9 99/104/9 100/105/10
f 81/85/9 100/105/10 82/86/10
f 82/86/10 100/105/10 101/106/11
f 82/86/10 101/106/11 83/87/11
f 83/87/11 101/106/11 102/107/12
f 83/87/11 102/107/12 84/88/12
f 84/88/12 102/107/12 103/108/13
f 84/88/12 103/108/13 85/89/13
f 85/89/13 103/108/13 104/109/14
f 85/89/13 104/109/14 86/90/14
f 86/90/14 104/109/14 105/110/15
f 86/90/14 105/110/15 87/91/15
f 87/91/15 105/110/15 106/111/16
f 87/91/15 106/111/16 88/92/16
f 88/93/16 106/112/16 107/113/17
f 88/93/16 107/113/17 89/94/17
f 89/94/17 107/113/17 108/114/18
f 89/94/17 108/114/18 90/95/18
f 90/95/18 108/114/18 109/115/19
f 90/95/18 109/115/19 91/96/19
f 91/96/19 109/115/19 92/97/2
f 91/96/19 92/97/2 74/78/2
f 110/116/20 93/98/20 92/97/20
f 110/116/20 94/99/20 93/98/20
f 110/116/20 95/100/20 94/99/20
f 110/116/20 96/101/20 95/100/20
f 110/116/20 97/102/20 96/101/20
f 110/116/20 98/103/20 97/102/20
f 110/116/20 99/104/20 98/103/20
f 110/116/20 100/105/20 99/104/20
f 110/116/20 101/106/20 100/105/20
f 110/116/20 102/107/20 101/106/20
f 110/116/20 103/108/20 102/107/20
f 110/116/20 104/109/20 103/108/20
f 110/116/20 105/110/20 104/109/20
f 110/116/20 106/111/20 105/110/20
f 110/116/20 107/113/20 106/112/20
f 110/116/20 108/114/20 107/113/20
f 110/116/20 109/115/20 108/114/20
f 110/116/20 92/97/20 109/115/20
