# Blender 3.3.0
# www.blender.org
mtllib CrackingEggs-4.mtl
o Sphere.009
v -0.004195 0.009543 0.002277
v -0.007586 0.007773 0.006407
v 0.008006 0.009055 -0.002719
v 0.003666 0.010281 0.000701
v 0.008735 0.006571 -0.008099
v -0.006853 0.004706 0.011837
v 0.002870 0.009081 0.008389
v -0.001086 0.006277 0.012617
v 0.008857 0.007860 0.006777
v 0.013602 0.005627 0.000418
v 0.012201 0.004256 -0.007026
v 0.005340 0.005015 0.012970
v 0.012189 0.002771 0.009375
v -0.002948 0.001288 0.014924
v 0.003488 -0.000684 0.014716
v 0.011877 -0.001208 0.009118
v 0.015056 -0.000354 0.000747
v 0.014310 0.000067 -0.005209
v 0.001000 -0.005595 0.012040
v 0.006254 -0.006941 0.007590
v 0.010613 -0.006121 0.003620
v -0.006955 -0.002580 0.012987
v 0.001434 -0.009600 0.003247
v 0.010933 -0.006362 -0.003405
v 0.011064 -0.004056 -0.008109
v -0.010501 0.001187 0.010761
v -0.005587 -0.008159 0.007567
v 0.003048 -0.009846 -0.003479
v -0.004456 -0.010135 -0.000347
v -0.007143 -0.008631 -0.007158
v -0.000441 -0.008034 -0.010262
v 0.005129 -0.006944 -0.010432
v -0.011012 -0.007776 -0.000540
v 0.010782 -0.001082 -0.010498
v -0.013188 -0.005443 0.003060
v -0.003883 -0.005456 -0.013370
v -0.013407 -0.003778 -0.006436
v -0.011778 -0.003667 0.008484
v -0.014929 -0.001554 0.002043
v -0.001889 0.000021 -0.015262
v -0.010388 0.000712 -0.010855
v 0.006240 -0.001467 -0.013937
v 0.000431 0.004424 -0.013467
v -0.014373 0.002684 -0.001109
v -0.010613 0.006121 -0.003620
v -0.006705 0.006627 -0.007748
v -0.002344 0.009245 -0.004303
v -0.012943 0.002662 0.006682
v 0.000809 0.007862 -0.008955
v 0.010058 0.002779 -0.010696
v 0.019710 -0.005948 -0.017669
v -0.000584 0.003467 -0.008149
v -0.002737 -0.000029 0.009833
v -0.013903 0.003942 0.015263
v -0.022172 0.000180 0.034238
v 0.019131 -0.002134 -0.010399
v 0.003427 -0.000265 0.028790
v 0.011854 -0.004136 0.027945
v 0.024721 -0.001983 0.013487
v -0.025290 -0.013098 0.047995
v -0.004200 -0.011937 0.036467
v 0.020314 -0.015307 0.028430
v 0.025262 -0.013930 -0.011496
v 0.009901 -0.017452 0.036763
v 0.027594 -0.019622 0.010150
v -0.025852 -0.023774 0.053782
v 0.010743 -0.024803 0.016353
v 0.019576 -0.029134 0.007426
v -0.032943 -0.032198 0.048822
v 0.000937 -0.025024 0.030445
v 0.006198 -0.029411 0.023646
v 0.010845 -0.037092 0.009096
v 0.009670 -0.033323 -0.002901
v 0.023901 -0.026919 -0.004974
v -0.001046 -0.029209 -0.018118
v -0.047434 -0.014210 0.050945
v -0.024698 -0.032794 0.027825
v -0.014308 -0.034772 0.015070
v 0.006577 -0.030220 -0.021072
v -0.009164 -0.040698 -0.007850
v -0.040416 -0.030050 0.009673
v -0.032935 -0.030533 -0.001337
v -0.035842 -0.029568 0.023173
v 0.008623 -0.022308 -0.024771
v -0.015925 -0.025693 -0.023480
v -0.043334 -0.021079 0.033899
v -0.036989 -0.022700 -0.005542
v -0.009618 -0.016528 -0.024611
v -0.048156 -0.014835 0.013224
v -0.052710 -0.015845 0.045313
v -0.033649 -0.007744 -0.002078
v -0.007470 -0.005272 -0.018925
v 0.000511 -0.013094 -0.020740
v 0.019205 -0.021832 -0.018895
v -0.045806 -0.002584 0.029772
v -0.019863 -0.002891 -0.007323
v 0.009129 -0.007218 -0.024541
v -0.041468 -0.008024 0.035709
v -0.018520 0.000845 0.007737
v 0.005742 -0.005802 -0.015521
vn -0.1081 0.9913 -0.0753
vn -0.6511 0.5004 0.5706
vn 0.0665 0.9631 -0.2609
vn 0.5709 0.5901 -0.5708
vn -0.1694 0.9486 0.2675
vn -0.2899 0.8160 0.5000
vn 0.2416 0.9547 0.1740
vn 0.6070 0.7496 -0.2638
vn 0.1177 0.7733 0.6230
vn 0.4946 0.8667 0.0647
vn -0.4722 0.2291 0.8512
vn 0.9052 0.3537 -0.2356
vn 0.5122 0.6322 0.5813
vn 0.9436 0.2419 0.2260
vn 0.1101 0.2583 0.9598
vn 0.8130 0.1232 -0.5691
vn 0.5483 -0.0967 0.8307
vn 0.8044 -0.5913 0.0569
vn -0.0653 -0.4517 0.8898
vn 0.8359 -0.5016 -0.2227
vn -0.1871 -0.7078 0.6812
vn -0.6505 -0.1756 0.7389
vn 0.3932 -0.8844 -0.2516
vn 0.5190 -0.7731 -0.3647
vn -0.0549 -0.9706 0.2346
vn 0.5204 -0.5327 -0.6674
vn -0.0271 -0.9691 -0.2450
vn 0.1711 -0.9264 -0.3355
vn -0.3357 -0.9390 -0.0748
vn 0.1734 -0.5556 -0.8132
vn -0.7922 -0.6039 -0.0876
vn -0.6100 -0.7486 -0.2598
vn -0.8899 -0.3113 0.3333
vn -0.5934 -0.3255 -0.7362
vn -0.4648 -0.1332 -0.8753
vn -0.9844 -0.0019 -0.1762
vn -0.9509 0.2552 0.1754
vn -0.7492 0.5190 -0.4114
vn -0.3632 0.5095 -0.7801
vn -0.6002 0.6315 -0.4909
vn 0.3152 0.3802 -0.8695
vn 0.5982 0.0712 -0.7981
vn -0.2220 0.7844 -0.5792
vn -0.6813 0.7208 0.1272
vn 0.1913 0.7729 -0.6051
vn -0.4672 0.8841 -0.0046
vn -0.0630 0.9870 0.1475
vn -0.1897 0.8907 0.4131
vn 0.3345 0.9383 0.0881
vn 0.5903 0.7667 -0.2524
vn 0.3048 0.7879 0.5351
vn 0.7137 0.6268 0.3125
vn -0.2448 0.4806 0.8421
vn 0.8182 0.1744 -0.5479
vn 0.0304 0.4101 0.9116
vn -0.4824 0.0624 0.8737
vn 0.9676 0.2295 -0.1050
vn 0.4892 0.1063 0.8657
vn 0.9338 -0.0955 0.3449
vn 0.8232 -0.5040 0.2613
vn -0.0849 -0.3743 0.9234
vn 0.8593 -0.4913 -0.1423
vn 0.0922 -0.9045 0.4165
vn 0.5610 -0.6771 0.4762
vn 0.8209 -0.3084 -0.4806
vn 0.3456 -0.9274 0.1433
vn -0.3606 0.9159 -0.1762
vn 0.4033 -0.9137 0.0497
vn -0.4082 -0.6857 0.6026
vn 0.0596 -0.9969 0.0508
vn 0.5523 -0.4897 -0.6746
vn -0.0451 -0.9791 -0.1984
vn -0.5041 -0.7734 0.3844
vn -0.4614 -0.8455 0.2689
vn -0.3377 -0.9234 0.1824
vn -0.1640 -0.8408 -0.5159
vn 0.1152 -0.6981 -0.7066
vn -0.9062 -0.4195 -0.0526
vn 0.0872 -0.3535 -0.9314
vn -0.5360 -0.6039 -0.5900
vn -0.9030 -0.0445 0.4273
vn -0.8918 0.2008 -0.4054
vn -0.8601 -0.0130 0.5100
vn 0.4232 -0.5930 0.6850
vn 0.2037 0.2758 -0.9394
vn -0.3767 0.6036 -0.7027
vn -0.2115 0.8884 -0.4076
vn -0.6470 0.7592 0.0702
vn 0.3137 0.6086 -0.7288
vn 0.0465 0.9657 -0.2556
vn -0.6034 0.6567 0.4524
vn 0.1889 0.9011 -0.3904
vn 0.1031 0.6612 -0.7430
vn -0.3670 0.9031 0.2229
vn 0.4045 0.9066 -0.1202
vn 0.8667 0.4669 -0.1758
vn 0.7597 0.0260 -0.6497
vn 0.0575 0.7118 0.7000
vn 0.9324 0.0854 0.3512
vn 0.6517 -0.0907 0.7530
vn 0.5125 0.4206 0.7486
vn 0.0933 0.4707 0.8774
vn 0.4185 0.4157 0.8075
vn 0.6371 -0.6539 0.4081
vn -0.2606 -0.3175 0.9117
vn 0.8689 -0.2918 -0.3997
vn 0.7077 -0.7065 -0.0053
vn 0.8845 -0.2317 0.4049
vn 0.3289 -0.9104 0.2510
vn -0.7629 -0.5812 -0.2831
vn 0.4443 -0.4711 -0.7620
vn -0.4002 -0.8338 0.3804
vn -0.3508 -0.9227 0.1598
vn -0.1639 -0.9841 -0.0682
vn -0.4526 -0.7329 -0.5079
vn -0.6812 -0.5872 -0.4372
vn 0.0111 -0.4259 -0.9047
vn -0.0391 -0.0959 -0.9946
vn -0.5910 0.3063 -0.7463
vn -0.5920 0.3050 -0.7460
vn -0.5878 0.3103 -0.7471
vn -0.4193 0.0279 -0.9074
vn -0.7577 0.3031 -0.5779
vn -0.5100 0.4635 -0.7246
vn -0.5815 -0.8063 -0.1079
vn -0.9316 0.3426 -0.1214
vn 0.2401 0.4452 -0.8626
vn -0.3344 0.9018 -0.2737
vn 0.5400 0.0477 -0.8403
vn 0.0722 0.9894 -0.1260
vn -0.2144 0.6370 0.7404
vn -0.1794 0.9593 -0.2180
vn 0.0862 0.9651 -0.2471
vn -0.2066 0.5187 -0.8296
vn -0.5019 0.8636 -0.0475
vn 0.1838 0.8764 -0.4450
vn 0.1071 0.8946 -0.4339
vn 0.2970 0.9511 -0.0847
vn 0.2768 0.5548 0.7846
vn 0.2655 0.9617 -0.0682
vn 0.0639 0.9732 0.2208
vn 0.4208 -0.7264 0.5435
vn 0.8607 0.4664 -0.2044
vn 0.1637 0.4652 0.8699
vn 0.3082 0.4934 0.8134
vn 0.6131 0.4912 0.6188
vn 0.0443 0.9805 0.1913
vn 0.9833 0.1716 -0.0608
vn -0.2034 -0.4741 0.8567
vn 0.9723 -0.1780 -0.1516
vn 0.0943 -0.9298 0.3557
vn 0.1402 -0.8293 0.5410
vn 0.7372 -0.6612 0.1390
vn 0.4484 -0.7027 0.5524
vn 0.6809 -0.7244 0.1081
vn 0.5300 -0.4279 0.7321
vn 0.3518 -0.8826 -0.3117
vn 0.3740 -0.9015 -0.2176
vn 0.5477 -0.7093 -0.4439
vn -0.2867 -0.9542 -0.0855
vn -0.1874 -0.8921 0.4111
vn 0.4161 -0.8551 -0.3094
vn -0.4617 -0.8557 0.2338
vn -0.1817 -0.9740 -0.1354
vn -0.1816 -0.9740 -0.1351
vn -0.1815 -0.9741 -0.1348
vn -0.0890 -0.9311 0.3538
vn 0.4265 -0.7514 -0.5035
vn -0.3306 -0.9325 0.1454
vn -0.1793 -0.9838 0.0066
vn 0.0908 -0.6985 -0.7098
vn -0.5673 -0.5977 -0.5665
vn -0.1815 -0.9741 -0.1350
vn -0.5740 -0.7880 0.2227
vn -0.8831 -0.4645 0.0657
vn -0.8616 -0.3531 -0.3647
vn -0.5869 0.3116 -0.7473
vn 0.4856 -0.0030 -0.8742
vn 0.1529 0.5060 -0.8489
vn 0.2005 0.4110 -0.8893
vn -0.4597 0.6345 -0.6213
vn -0.6902 0.6250 -0.3647
vn 0.0403 0.7512 0.6589
vn -0.6278 0.6976 -0.3453
vn -0.3892 0.9016 -0.1889
vn -0.4572 0.8720 0.1750
vn -0.1177 0.9930 0.0087
vn -0.3041 0.9413 0.1466
vt 0.885501 0.933717
vt 0.859328 0.931666
vt 0.726630 0.923880
vt 0.933629 0.890572
vt 0.731276 0.759125
vt 0.912875 0.902660
vt 0.882306 0.833714
vt 0.714935 0.732473
vt 0.837221 0.901948
vt 0.709324 0.888023
vt 0.882530 0.876894
vt 0.852643 0.874828
vt 0.723468 0.867264
vt 0.831306 0.717916
vt 0.901499 0.850491
vt 0.787305 0.680629
vt 0.931421 0.844318
vt 0.749722 0.684608
vt 0.702809 0.791102
vt 0.696152 0.747656
vt 0.866030 0.839334
vt 0.808092 0.714072
vt 0.684144 0.834314
vt 0.770798 0.714993
vt 0.691180 0.851104
vt 0.831306 0.762677
vt 0.804870 0.764125
vt 0.761478 0.747030
vt 0.731276 0.728936
vt 0.661935 0.796396
vt 0.666246 0.762818
vt 0.649106 0.834314
vt 0.794106 0.807020
vt 0.837221 0.870658
vt 0.761990 0.803873
vt 0.627861 0.798672
vt 0.739327 0.785785
vt 0.819277 0.844149
vt 0.829989 0.801019
vt 0.663232 0.865595
vt 0.759996 0.833150
vt 0.824228 0.894491
vt 0.626918 0.762359
vt 0.789959 0.839334
vt 0.764007 0.839792
vt 0.642635 0.738022
vt 0.684115 0.897945
vt 0.797794 0.839334
vt 0.626918 0.873308
vt 0.837221 0.939979
vt 0.796527 0.882029
vt 0.808741 0.927745
vt 0.775118 0.943265
vt 0.762034 0.902762
vt 0.629699 0.708862
vt 0.759943 0.870751
vt 0.800229 0.969972
vt 0.662830 0.724841
vt 0.809104 0.987340
vt 0.637644 0.928653
vt 0.831306 0.728422
vt 0.741303 0.925548
vt 0.645080 0.978751
vt 0.764227 0.987301
vt 0.871927 0.680629
vt 0.651628 0.901891
vt 0.660907 0.949017
vt 0.851188 0.765023
vt 0.879307 0.721426
vt 0.731276 0.869866
vt 0.665186 0.693894
vt 0.832750 0.794818
vt 0.873495 0.792907
vt 0.709601 0.680629
vt 0.918310 0.696927
vt 0.687263 0.972134
vt 0.923458 0.733706
vt 0.882301 0.977512
vt 0.710883 0.978751
vt 0.907499 0.974066
vt 0.909888 0.760534
vt 0.923458 0.787671
vt 0.912115 0.946959
vt 0.690562 0.929720
vt 0.900466 0.803306
vt 0.933629 0.944578
vt 0.731276 0.705868
vt 0.689007 0.722100
vt 0.387493 0.320958
vt 0.256667 0.534295
vt 0.518420 0.535188
vt 0.578839 0.088138
vt 0.239944 0.088138
vt 0.516011 0.269401
vt 0.508138 0.422818
vt 0.220877 0.130255
vt 0.455461 0.285080
vt 0.465936 0.527972
vt 0.465936 0.443710
vt 0.267516 0.128074
vt 0.603281 0.595818
vt 0.574347 0.465499
vt 0.492806 0.586441
vt 0.264683 0.179311
vt 0.267516 0.590128
vt 0.541519 0.465499
vt 0.229155 0.523501
vt 0.534020 0.151427
vt 0.362779 0.335396
vt 0.488533 0.360112
vt 0.190798 0.147692
vt 0.518420 0.335396
vt 0.149968 0.157805
vt 0.578839 0.216710
vt 0.129801 0.115450
vt 0.284858 0.304792
vt 0.208991 0.268263
vt 0.158738 0.225805
vt 0.267516 0.200811
vt 0.257004 0.376800
vt 0.077010 0.207447
vt 0.581060 0.088138
vt 0.370784 0.262459
vt 0.093559 0.239764
vt 0.312598 0.197878
vt 0.161559 0.331363
vt 0.229155 0.447302
vt 0.607175 0.125965
vt 0.346809 0.141317
vt 0.578839 0.152322
vt 0.607003 0.216710
vt 0.149160 0.376800
vt 0.229155 0.493331
vt 0.534020 0.231079
vt 0.214462 0.455104
vt 0.091087 0.281145
vt 0.257004 0.476104
vt 0.060794 0.290160
vt 0.196903 0.422213
vt 0.237366 0.523501
vt 0.607175 0.198352
vt 0.152747 0.376800
vt 0.367702 0.088740
vt 0.600744 0.325996
vt 0.398938 0.128411
vt 0.371682 0.171790
vt 0.455461 0.174396
vt 0.392462 0.373587
vt 0.589641 0.402058
vt 0.267516 0.301279
vt 0.229155 0.621104
vt 0.603281 0.473769
vt 0.172934 0.478413
vt 0.607003 0.287463
vt 0.144009 0.447842
vt 0.381564 0.351007
vt 0.451962 0.172030
vt 0.574347 0.384792
vt 0.075366 0.413618
vt 0.455461 0.088138
vt 0.465936 0.335396
vt 0.100161 0.538158
vt 0.074177 0.521746
vt 0.465936 0.440859
vt 0.147583 0.524169
vt 0.448519 0.226917
vt 0.339074 0.385918
vt 0.600744 0.465499
vt 0.401838 0.422694
vt 0.177063 0.582218
vt 0.435124 0.488587
vt 0.060794 0.573912
vt 0.346511 0.455323
vt 0.427242 0.557866
vt 0.110748 0.634518
vt 0.534020 0.203962
vt 0.459596 0.269401
vt 0.204760 0.627721
vt 0.574347 0.335396
vt 0.577822 0.465499
vt 0.360197 0.558387
vt 0.534020 0.131490
vt 0.492806 0.547295
vt 0.292104 0.509432
vt 0.312915 0.451651
vt 0.543705 0.335396
vt 0.412778 0.222282
vt 0.455461 0.173075
vt 0.518420 0.425169
vt 0.333899 0.625234
vt 0.516953 0.506434
vt 0.518420 0.506434
vt 0.573183 0.572965
vt 0.309223 0.551629
vt 0.514644 0.088138
vt 0.516011 0.332059
vt 0.267516 0.461776
vt 0.256667 0.577487
vt 0.427115 0.321892
vt 0.543705 0.290290
vt 0.561116 0.398649
vt 0.573183 0.529629
vt 0.492806 0.506434
vt 0.482175 0.470589
vt 0.463604 0.096020
vt 0.333899 0.558387
vt 0.271064 0.478695
vt 0.516953 0.588350
vt 0.230743 0.566976
vt 0.573183 0.491288
vt 0.518420 0.293014
s 1
usemtl Material.001
f 1/1/1 4/6/1 47/83/1
f 48/84/2 26/47/2 6/10/2
f 4/6/3 3/4/3 49/86/3
f 5/8/4 11/20/4 50/88/4
f 2/2/5 7/11/5 1/1/5
f 2/2/6 6/9/6 8/12/6
f 7/11/7 9/15/7 4/6/7
f 3/5/8 10/19/8 5/8/8
f 7/11/9 8/12/9 12/21/9
f 3/4/10 9/15/10 10/17/10
f 26/47/11 14/25/11 6/10/11
f 10/19/12 18/31/12 11/20/12
f 12/22/13 13/24/13 9/16/13
f 13/23/14 17/30/14 10/19/14
f 14/26/15 15/27/15 12/22/15
f 50/88/16 18/31/16 34/58/16
f 13/24/17 15/27/17 16/28/17
f 21/36/18 24/43/18 17/30/18
f 22/39/19 19/33/19 15/27/19
f 24/43/20 25/46/20 18/31/20
f 22/40/21 27/49/21 19/32/21
f 22/40/22 26/47/22 38/66/22
f 28/51/23 32/56/23 24/44/23
f 24/44/24 32/56/24 25/45/24
f 27/50/25 29/52/25 23/42/25
f 32/55/26 42/71/26 25/46/26
f 28/51/27 30/53/27 31/54/27
f 28/51/28 31/54/28 32/56/28
f 33/57/29 30/53/29 29/52/29
f 32/56/30 36/62/30 42/70/30
f 33/57/31 35/59/31 37/64/31
f 33/57/32 37/64/32 30/53/32
f 38/66/33 39/67/33 35/60/33
f 36/61/34 37/65/34 41/69/34
f 36/61/35 41/69/35 40/68/35
f 39/67/36 44/76/36 37/63/36
f 39/67/37 48/84/37 44/76/37
f 44/75/38 45/77/38 41/69/38
f 40/68/39 41/69/39 43/73/39
f 45/77/40 46/81/40 41/69/40
f 43/74/41 50/88/41 42/71/41
f 34/58/42 42/71/42 50/88/42
f 43/73/43 46/81/43 49/85/43
f 44/76/44 48/84/44 2/3/44
f 43/73/45 49/85/45 5/7/45
f 45/78/46 2/2/46 1/1/46
f 4/6/47 1/1/47 7/11/47
f 2/2/48 8/12/48 7/11/48
f 3/4/49 4/6/49 9/15/49
f 5/8/50 10/19/50 11/20/50
f 7/11/51 12/21/51 9/15/51
f 10/18/52 9/16/52 13/24/52
f 6/10/53 14/25/53 8/13/53
f 50/88/54 11/20/54 18/31/54
f 8/14/55 14/26/55 12/22/55
f 26/47/56 22/40/56 14/25/56
f 10/19/57 17/30/57 18/31/57
f 12/22/58 15/27/58 13/24/58
f 13/24/59 16/28/59 17/29/59
f 16/28/60 21/37/60 17/29/60
f 14/26/61 22/39/61 15/27/61
f 17/30/62 24/43/62 18/31/62
f 23/41/63 20/35/63 19/33/63 27/48/63
f 21/37/64 16/28/64 20/35/64
f 18/31/65 25/46/65 34/58/65
f 23/42/66 28/51/66 21/38/66 20/34/66
f 47/83/67 46/80/67 45/78/67 1/1/67
f 21/38/68 28/51/68 24/44/68
f 22/40/69 38/66/69 27/49/69
f 28/51/70 23/42/70 29/52/70
f 25/46/71 42/71/71 34/58/71
f 28/51/72 29/52/72 30/53/72
f 27/49/73 38/66/73 35/60/73
f 27/50/74 35/59/74 33/57/74
f 29/52/75 27/50/75 33/57/75
f 31/54/76 30/53/76 36/62/76
f 32/56/77 31/54/77 36/62/77
f 35/60/78 39/67/78 37/63/78
f 36/61/79 40/68/79 42/72/79
f 36/62/80 30/53/80 37/64/80
f 39/67/81 38/66/81 48/84/81
f 37/65/82 44/75/82 41/69/82
f 38/66/83 26/47/83 48/84/83
f 19/33/84 20/35/84 16/28/84 15/27/84
f 40/68/85 43/73/85 42/72/85
f 43/73/86 41/69/86 46/81/86
f 49/85/87 46/81/87 47/82/87
f 45/79/88 44/76/88 2/3/88
f 50/88/89 43/74/89 5/8/89
f 49/86/90 47/83/90 4/6/90
f 48/84/91 6/10/91 2/3/91
f 5/8/92 49/87/92 3/5/92
f 100/210/93 52/91/93 56/106/93
f 76/152/94 55/101/94 98/202/94
f 53/95/95 57/110/95 58/112/95
f 51/89/96 56/109/96 63/123/96
f 94/187/97 51/89/97 63/123/97
f 55/104/98 76/150/98 60/117/98
f 59/116/99 62/119/99 65/125/99
f 61/118/100 66/126/100 70/136/100
f 58/113/101 64/124/101 62/121/101
f 60/117/102 76/150/102 66/126/102
f 60/117/103 66/126/103 61/118/103
f 65/125/104 62/119/104 68/129/104
f 66/126/105 76/150/105 69/132/105
f 74/146/106 94/187/106 63/123/106
f 71/137/107 67/127/107 62/120/107
f 67/127/108 71/137/108 72/140/108
f 69/131/109 78/154/109 70/134/109
f 69/133/110 76/151/110 77/153/110
f 94/187/111 79/157/111 84/166/111
f 86/170/112 83/165/112 77/153/112
f 78/155/113 82/163/113 80/159/113
f 78/155/114 81/162/114 82/163/114
f 82/164/115 85/169/115 80/161/115
f 82/163/116 81/162/116 87/172/116
f 85/169/117 84/167/117 79/156/117
f 85/169/118 88/173/118 84/167/118
f 85/169/119 87/171/120 91/181/121
f 84/167/122 93/185/122 97/197/122
f 87/171/123 89/174/123 91/181/123
f 88/173/124 91/181/124 92/184/124
f 86/170/125 90/178/125 89/175/125
f 89/176/126 90/177/126 95/188/126
f 92/184/127 100/207/127 93/185/127
f 95/188/128 99/205/128 91/182/128
f 94/187/129 97/199/129 51/89/129
f 92/183/130 96/191/130 100/208/130
f 95/189/131 98/201/131 55/102/131
f 97/198/132 100/209/132 56/107/132
f 99/204/133 53/95/133 96/192/133
f 96/193/134 52/91/134 100/210/134
f 99/203/135 55/103/135 54/98/135
f 56/107/136 51/90/136 97/198/136
f 53/95/137 99/204/137 54/99/137
f 53/95/138 54/99/138 57/110/138
f 61/118/139 57/111/139 55/104/139 60/117/139
f 52/92/140 59/114/140 56/108/140
f 54/100/141 55/104/141 57/111/141
f 71/138/142 62/121/142 64/124/142 70/136/142
f 56/109/143 59/116/143 63/123/143
f 57/111/144 61/118/144 64/124/144
f 58/113/145 57/111/145 64/124/145
f 58/113/146 62/121/146 59/115/146
f 59/115/147 52/93/147 53/96/147 58/113/147
f 63/123/148 59/116/148 65/125/148
f 64/124/149 61/118/149 70/136/149
f 63/123/150 65/125/150 74/146/150
f 78/155/151 80/159/151 71/139/151 70/135/151
f 68/130/152 62/122/152 67/128/152
f 74/146/153 65/125/153 68/129/153
f 66/126/154 69/132/154 70/136/154
f 68/129/155 72/143/155 74/146/155
f 68/130/156 67/128/156 72/141/156
f 74/146/157 72/143/157 73/145/157
f 74/146/158 73/145/158 79/157/158
f 74/146/159 79/157/159 94/187/159
f 69/133/160 77/153/160 78/155/160
f 72/142/161 71/139/161 80/159/161
f 72/143/162 80/160/162 73/145/162
f 77/153/163 76/151/163 86/170/163
f 73/144/164 75/149/165 79/158/166
f 76/151/167 90/178/167 86/170/167
f 75/147/168 73/145/168 80/160/168
f 77/153/169 83/165/169 81/162/169
f 78/155/170 77/153/170 81/162/170
f 75/148/171 80/161/171 85/169/171
f 82/164/172 87/171/172 85/169/172
f 75/149/165 85/168/173 79/158/166
f 81/162/174 83/165/174 86/170/174
f 81/162/175 86/170/175 89/175/175
f 87/172/176 81/162/176 89/175/176
f 88/173/177 85/169/119 91/181/121
f 84/166/178 97/199/178 94/187/178
f 84/167/179 88/173/179 93/185/179
f 88/173/180 92/184/180 93/185/180
f 92/184/181 91/181/181 96/194/181
f 89/176/182 95/188/182 91/182/182
f 95/189/183 90/179/183 98/201/183
f 97/200/184 93/186/184 100/211/184
f 91/182/185 99/205/185 96/195/185
f 90/180/186 76/152/186 98/202/186
f 95/190/187 55/105/187 99/206/187
f 52/94/188 96/196/188 53/97/188
