# Blender 3.3.0
# www.blender.org
mtllib CrackingEggs-2.mtl
o Sphere.004
v 0.002809 -0.038973 -0.008712
v -0.003940 -0.018258 -0.019502
v 0.006093 -0.003606 -0.014511
v 0.002319 0.007944 -0.019234
v 0.008567 0.027495 -0.014617
v 0.007891 -0.033296 -0.011821
v 0.023291 0.006057 -0.011642
v 0.028197 -0.000271 -0.006888
v 0.028062 -0.019639 -0.008911
v 0.013525 0.039803 -0.000503
v 0.021145 0.016980 -0.000264
v 0.032882 -0.005584 0.005211
v 0.009732 -0.038172 0.000457
v 0.030657 0.007631 0.006909
v 0.025129 -0.023879 0.008523
v 0.015356 0.044516 0.010552
v 0.016347 -0.007804 0.012232
v 0.016021 -0.020316 0.016681
v 0.005578 0.045801 0.017523
v 0.018745 0.009191 0.012679
v 0.017268 0.000672 0.016965
v 0.009606 -0.013069 0.023657
v 0.001253 -0.021077 0.018594
v 0.011122 -0.032355 0.013774
v -0.016100 -0.024936 0.011720
v -0.000634 0.057072 -0.001776
v -0.002731 0.024827 0.017006
v -0.004149 0.008431 0.018936
v -0.012752 -0.032286 0.013341
v -0.016825 -0.011786 0.023118
v -0.025888 0.022245 0.010590
v -0.027993 0.009095 0.010868
v -0.013406 0.028995 0.012013
v -0.012536 -0.036459 0.005403
v -0.029904 -0.018743 0.005921
v -0.010249 0.041871 0.003799
v -0.032532 0.008713 0.002222
v -0.024686 -0.023955 -0.002485
v -0.026700 0.029981 -0.005014
v -0.008495 0.056565 -0.001358
v -0.025450 0.008833 -0.011802
v -0.017541 -0.021363 -0.012775
v -0.014230 -0.028062 -0.004271
v -0.000863 -0.039381 0.006794
v -0.011928 0.040370 -0.015179
v -0.018284 -0.004448 -0.015460
v -0.009659 -0.036773 -0.009417
v -0.005643 0.041804 -0.008689
v -0.006572 0.005616 -0.017483
v -0.005796 -0.027878 -0.010322
v 0.001438 -0.008225 -0.024896
v 0.001501 -0.002875 -0.023143
v 0.006794 -0.020194 -0.023444
v 0.006161 -0.014744 -0.024836
v 0.003302 -0.024603 -0.021441
v 0.005214 0.000624 -0.019482
v 0.010586 -0.008568 -0.022978
v 0.010147 -0.002753 -0.020262
v 0.013627 -0.013819 -0.021212
v 0.012412 -0.021685 -0.019071
v 0.006165 -0.026161 -0.018629
v 0.014823 -0.006864 -0.018207
v 0.016989 -0.014144 -0.015526
v 0.009580 0.000249 -0.015328
v 0.013775 -0.004273 -0.012627
v 0.015969 -0.014083 -0.011659
v 0.012749 -0.022382 -0.012957
v 0.008259 -0.026232 -0.014057
v 0.009408 -0.004489 -0.008343
v 0.009986 -0.011314 -0.006826
v 0.010581 -0.017198 -0.007508
v 0.004779 0.001601 -0.012183
v 0.003164 -0.011179 -0.005214
v 0.006035 -0.022551 -0.007933
v 0.003316 -0.026102 -0.010666
v 0.001306 0.002357 -0.016553
v 0.001238 -0.003246 -0.007051
v -0.000248 -0.017198 -0.005448
v -0.003594 -0.009787 -0.005753
v -0.009893 -0.012950 -0.008242
v -0.007059 -0.019795 -0.008336
v -0.002984 -0.023728 -0.008760
v -0.008085 -0.005479 -0.008892
v 0.001965 -0.027684 -0.013875
v -0.006862 -0.001383 -0.011098
v -0.011235 -0.019745 -0.011607
v -0.013167 -0.008193 -0.013718
v -0.001909 0.001606 -0.012140
v -0.008197 -0.000975 -0.015251
v -0.010218 -0.022538 -0.016966
v -0.013268 -0.013525 -0.018231
v -0.003691 -0.027099 -0.014385
v -0.006645 -0.022847 -0.020855
v -0.009261 -0.003698 -0.019685
v -0.007705 -0.008130 -0.022877
v -0.007592 -0.013819 -0.023319
v -0.001713 -0.014297 -0.025036
v -0.002977 0.001025 -0.018712
v -0.002792 -0.019837 -0.023755
v 0.001912 -0.027371 -0.017795
vn -0.3236 -0.6198 -0.7150
vn 0.0267 0.4051 -0.9139
vn 0.3523 -0.3720 -0.8588
vn 0.5796 -0.7238 -0.3744
vn 0.1139 -0.9935 0.0009
vn 0.6249 0.4663 -0.6261
vn 0.9229 -0.3798 0.0629
vn 0.9640 0.1071 0.2432
vn 0.9405 0.1943 -0.2789
vn 0.7327 0.5738 -0.3660
vn 0.9116 0.3014 -0.2795
vn 0.6328 -0.1300 0.7633
vn 0.3775 0.8474 0.3734
vn 0.3117 -0.8822 0.3528
vn 0.3967 -0.4800 0.7824
vn 0.8751 -0.3050 0.3758
vn 0.2645 -0.0324 0.9638
vn -0.8322 0.3185 0.4539
vn -0.2670 -0.8560 0.4427
vn -0.1623 0.5586 0.8134
vn -0.2893 0.3645 0.8851
vn -0.3179 0.0708 0.9455
vn -0.7836 -0.0562 0.6187
vn -0.8781 0.1501 0.4543
vn -0.6688 -0.6654 0.3315
vn -0.7142 -0.6999 -0.0094
vn -0.8820 -0.1456 -0.4482
vn -0.8827 -0.1447 -0.4470
vn -0.8796 -0.1484 -0.4519
vn -0.9103 -0.3780 -0.1687
vn -0.8892 0.0913 -0.4483
vn -0.7844 -0.1864 -0.5916
vn -0.6183 0.3250 0.7156
vn -0.7005 0.5433 -0.4627
vn -0.3392 -0.7987 -0.4970
vn -0.2851 0.0196 -0.9583
vn -0.1698 -0.9833 -0.0660
vn 0.1216 -0.1504 -0.9811
vn 0.4443 0.6819 -0.5810
vn -0.1267 -0.0458 -0.9909
vn 0.0462 -0.2483 -0.9676
vn -0.6277 -0.4706 -0.6201
vn -0.2593 0.2997 -0.9181
vn -0.0308 -0.4588 -0.8880
vn -0.0757 -0.3985 -0.9140
vn 0.3056 -0.2731 -0.9121
vn 0.8156 0.3800 -0.4363
vn 0.2957 -0.2397 -0.9247
vn 0.3470 0.1091 -0.9315
vn 0.5568 0.1171 0.8224
vn 0.5559 -0.7406 -0.3775
vn 0.7776 0.5204 -0.3529
vn 0.8481 0.3802 -0.3690
vn 0.9365 0.0300 -0.3495
vn 0.3141 0.1008 -0.9440
vn 0.6952 -0.7165 -0.0573
vn 0.3572 0.7695 0.5294
vn 0.5714 -0.7722 0.2777
vn 0.1628 0.2043 0.9653
vn 0.3366 0.3076 0.8900
vn 0.5224 -0.3950 0.7557
vn 0.5864 0.1046 0.8032
vn 0.4510 -0.3787 0.8082
vn 0.8094 0.1779 0.5596
vn -0.0943 -0.4599 0.8830
vn -0.0177 -0.4060 0.9137
vn -0.0151 -0.6916 0.7221
vn -0.4135 0.1416 0.8994
vn 0.0028 0.4366 0.8997
vn -0.0420 -0.5022 0.8637
vn -0.3090 0.4936 0.8129
vn -0.3745 0.0337 0.9266
vn -0.3743 0.0339 0.9267
vn -0.3744 0.0338 0.9266
vn 0.0290 0.3279 0.9443
vn -0.1493 -0.6523 0.7431
vn -0.2861 0.3403 0.8957
vn -0.2786 0.1360 0.9507
vn -0.5225 -0.5747 0.6299
vn -0.8848 -0.0220 0.4655
vn -0.3742 0.0339 0.9267
vn -0.3870 0.5615 0.7314
vn -0.6654 0.6545 0.3591
vn -0.9228 0.3240 0.2087
vn -0.8789 -0.1492 -0.4531
vn -0.2398 -0.9705 -0.0260
vn -0.3833 -0.7297 -0.5662
vn -0.3911 -0.7909 -0.4707
vn -0.6518 -0.1467 -0.7441
vn -0.6464 0.1982 -0.7368
vn 0.5909 0.4476 -0.6712
vn -0.5769 0.1693 -0.7990
vn -0.2675 0.1190 -0.9562
vn -0.0756 0.4318 -0.8988
vn 0.0760 0.0776 -0.9941
vn 0.0265 0.3060 -0.9517
vn 0.0260 0.0096 -0.9996
vn -0.0066 0.8568 -0.5156
vn 0.0223 -0.2449 -0.9693
vn 0.1190 -0.8121 -0.5712
vn 0.2064 0.3025 -0.9305
vn 0.2556 0.5560 -0.7909
vn 0.4407 -0.0462 -0.8964
vn 0.3770 -0.6137 -0.6937
vn 0.6259 0.3683 -0.6874
vn 0.5358 -0.2978 -0.7901
vn 0.2694 0.9425 -0.1980
vn 0.5494 -0.7928 -0.2640
vn 0.8605 0.0701 -0.5047
vn 0.8710 -0.4804 -0.1027
vn 0.7672 0.6246 -0.1459
vn 0.2218 -0.9717 -0.0807
vn 0.9409 0.2345 0.2445
vn 0.5264 -0.5015 0.6866
vn 0.4826 0.6994 0.5272
vn 0.3745 -0.7284 0.5738
vn 0.2140 0.6322 0.7446
vn 0.0018 0.9856 0.1690
vn -0.0242 -0.4440 0.8957
vn 0.0077 -0.6136 0.7896
vn -0.0329 0.2178 0.9754
vn -0.1579 -0.8381 0.5221
vn -0.3362 -0.1519 0.9295
vn -0.2475 -0.3537 0.9020
vn -0.4393 0.1827 0.8795
vn -0.5102 -0.7079 0.4884
vn -0.7250 0.4816 0.4924
vn -0.7322 0.2328 0.6400
vn -0.4658 0.8535 0.2336
vn -0.9756 -0.1308 0.1765
vn -0.9467 -0.3220 -0.0119
vn -0.8293 0.5424 -0.1342
vn -0.5278 0.7743 -0.3490
vn -0.7370 0.2052 -0.6439
vn -0.7087 -0.3275 -0.6249
vn -0.6656 0.0445 -0.7450
vn -0.2998 -0.8544 -0.4245
vn -0.0957 -0.9923 -0.0781
vn -0.4284 -0.2794 -0.8593
vn -0.2931 0.5511 -0.7813
vn -0.1495 -0.5800 -0.8008
vn -0.2021 0.3072 -0.9300
vn 0.2082 0.1419 -0.9677
vn 0.2809 0.4234 -0.8613
vn 0.4473 -0.1722 -0.8777
vn 0.3754 -0.5941 -0.7114
vn 0.7039 0.1763 -0.6881
vn 0.8236 -0.2639 -0.5020
vn 0.4665 0.7784 -0.4200
vn 0.2479 -0.9602 -0.1286
vn 0.7009 0.6422 -0.3103
vn 0.2512 0.9674 -0.0323
vn 0.6631 -0.7387 -0.1207
vn 0.9535 0.2986 0.0404
vn 0.8914 -0.3836 0.2412
vn 0.6914 -0.3657 0.6230
vn 0.5033 0.7367 0.4517
vn 0.4472 -0.6856 0.5745
vn 0.2062 0.2499 0.9460
vn 0.6202 -0.0281 0.7839
vn 0.2198 -0.9085 0.3553
vn 0.2012 -0.1225 0.9719
vn -0.2360 0.1087 -0.9657
vn 0.1818 -0.2303 0.9560
vn 0.0049 0.7254 0.6884
vn -0.0784 0.0056 0.9969
vn -0.1331 -0.8656 0.4828
vn -0.3193 -0.1054 0.9418
vn -0.2252 0.6319 0.7416
vn -0.2836 0.5190 0.8064
vn -0.2648 0.3721 0.8896
vn -0.5976 -0.2578 0.7592
vn -0.5026 -0.5890 0.6328
vn -0.7548 0.5833 0.3000
vn -0.6206 -0.7374 0.2665
vn -0.8790 -0.0605 0.4730
vn -0.3702 0.9287 -0.0220
vn -0.8855 0.3098 -0.3462
vn -0.2785 0.9596 -0.0397
vn 0.6748 0.2178 0.7051
vn -0.4437 -0.8284 -0.3418
vn -0.6516 -0.2625 -0.7117
vn -0.2888 -0.1619 -0.9436
vn -0.3008 0.4857 -0.8207
vn -0.1703 -0.7525 -0.6362
vn 0.0119 -0.2275 -0.9737
vn -0.0276 0.7364 -0.6760
vn 0.0137 -0.4225 -0.9062
vt 0.387493 0.320958
vt 0.256667 0.534295
vt 0.518420 0.535188
vt 0.578839 0.088138
vt 0.239944 0.088138
vt 0.516011 0.269401
vt 0.508138 0.422818
vt 0.220877 0.130255
vt 0.455461 0.285080
vt 0.465936 0.527972
vt 0.465936 0.443710
vt 0.267516 0.128074
vt 0.603281 0.595818
vt 0.574347 0.465499
vt 0.492806 0.586441
vt 0.264683 0.179311
vt 0.267516 0.590128
vt 0.541519 0.465499
vt 0.229155 0.523501
vt 0.534020 0.151427
vt 0.362779 0.335396
vt 0.488533 0.360112
vt 0.190798 0.147692
vt 0.518420 0.335396
vt 0.149968 0.157805
vt 0.578839 0.216710
vt 0.129801 0.115450
vt 0.284858 0.304792
vt 0.208991 0.268263
vt 0.158738 0.225805
vt 0.267516 0.200811
vt 0.257004 0.376800
vt 0.077010 0.207447
vt 0.581060 0.088138
vt 0.370784 0.262459
vt 0.093559 0.239764
vt 0.312598 0.197878
vt 0.161559 0.331363
vt 0.229155 0.447302
vt 0.607175 0.125965
vt 0.346809 0.141317
vt 0.578839 0.152322
vt 0.607003 0.216710
vt 0.149160 0.376800
vt 0.229155 0.493331
vt 0.534020 0.231079
vt 0.214462 0.455104
vt 0.091087 0.281145
vt 0.257004 0.476104
vt 0.060794 0.290160
vt 0.196903 0.422213
vt 0.237366 0.523501
vt 0.607175 0.198352
vt 0.152747 0.376800
vt 0.367702 0.088740
vt 0.600744 0.325996
vt 0.398938 0.128411
vt 0.371682 0.171790
vt 0.455461 0.174396
vt 0.392462 0.373587
vt 0.589641 0.402058
vt 0.267516 0.301279
vt 0.229155 0.621104
vt 0.603281 0.473769
vt 0.172934 0.478413
vt 0.607003 0.287463
vt 0.144009 0.447842
vt 0.381564 0.351007
vt 0.451962 0.172030
vt 0.574347 0.384792
vt 0.075366 0.413618
vt 0.455461 0.088138
vt 0.465936 0.335396
vt 0.100161 0.538158
vt 0.074177 0.521746
vt 0.465936 0.440859
vt 0.147583 0.524169
vt 0.448519 0.226917
vt 0.339074 0.385918
vt 0.600744 0.465499
vt 0.401838 0.422694
vt 0.177063 0.582218
vt 0.435124 0.488587
vt 0.060794 0.573912
vt 0.346511 0.455323
vt 0.427242 0.557866
vt 0.110748 0.634518
vt 0.534020 0.203962
vt 0.459596 0.269401
vt 0.204760 0.627721
vt 0.574347 0.335396
vt 0.577822 0.465499
vt 0.360197 0.558387
vt 0.534020 0.131490
vt 0.492806 0.547295
vt 0.292104 0.509432
vt 0.312915 0.451651
vt 0.543705 0.335396
vt 0.412778 0.222282
vt 0.455461 0.173075
vt 0.518420 0.425169
vt 0.333899 0.625234
vt 0.516953 0.506434
vt 0.518420 0.506434
vt 0.573183 0.572965
vt 0.309223 0.551629
vt 0.514644 0.088138
vt 0.516011 0.332059
vt 0.267516 0.461776
vt 0.256667 0.577487
vt 0.427115 0.321892
vt 0.543705 0.290290
vt 0.561116 0.398649
vt 0.573183 0.529629
vt 0.492806 0.506434
vt 0.482175 0.470589
vt 0.463604 0.096020
vt 0.333899 0.558387
vt 0.271064 0.478695
vt 0.516953 0.588350
vt 0.230743 0.566976
vt 0.573183 0.491288
vt 0.518420 0.293014
vt 0.885501 0.933717
vt 0.859328 0.931666
vt 0.726630 0.923880
vt 0.933629 0.890572
vt 0.731276 0.759125
vt 0.912875 0.902660
vt 0.882306 0.833714
vt 0.714935 0.732473
vt 0.837221 0.901948
vt 0.709324 0.888023
vt 0.882530 0.876894
vt 0.852643 0.874828
vt 0.723468 0.867264
vt 0.831306 0.717916
vt 0.901499 0.850491
vt 0.787305 0.680629
vt 0.931421 0.844318
vt 0.749722 0.684608
vt 0.702809 0.791102
vt 0.696152 0.747656
vt 0.866030 0.839334
vt 0.808092 0.714072
vt 0.684144 0.834314
vt 0.770798 0.714993
vt 0.691180 0.851104
vt 0.831306 0.762677
vt 0.804870 0.764125
vt 0.761478 0.747030
vt 0.731276 0.728936
vt 0.661935 0.796396
vt 0.666246 0.762818
vt 0.649106 0.834314
vt 0.794106 0.807020
vt 0.837221 0.870658
vt 0.761990 0.803873
vt 0.627861 0.798672
vt 0.739327 0.785785
vt 0.819277 0.844149
vt 0.829989 0.801019
vt 0.663232 0.865595
vt 0.759996 0.833150
vt 0.824228 0.894491
vt 0.626918 0.762359
vt 0.789959 0.839334
vt 0.764007 0.839792
vt 0.642635 0.738022
vt 0.684115 0.897945
vt 0.797794 0.839334
vt 0.626918 0.873308
vt 0.837221 0.939979
vt 0.796527 0.882029
vt 0.808741 0.927745
vt 0.775118 0.943265
vt 0.762034 0.902762
vt 0.629699 0.708862
vt 0.759943 0.870751
vt 0.800229 0.969972
vt 0.662830 0.724841
vt 0.809104 0.987340
vt 0.637644 0.928653
vt 0.831306 0.728422
vt 0.741303 0.925548
vt 0.645080 0.978751
vt 0.764227 0.987301
vt 0.871927 0.680629
vt 0.651628 0.901891
vt 0.660907 0.949017
vt 0.851188 0.765023
vt 0.879307 0.721426
vt 0.731276 0.869866
vt 0.665186 0.693894
vt 0.832750 0.794818
vt 0.873495 0.792907
vt 0.709601 0.680629
vt 0.918310 0.696927
vt 0.687263 0.972134
vt 0.923458 0.733706
vt 0.882301 0.977512
vt 0.710883 0.978751
vt 0.907499 0.974066
vt 0.909888 0.760534
vt 0.923458 0.787671
vt 0.912115 0.946959
vt 0.690562 0.929720
vt 0.900466 0.803306
vt 0.933629 0.944578
vt 0.731276 0.705868
vt 0.689007 0.722100
s 1
usemtl Material.017
f 50/122/1 2/3/1 6/18/1
f 26/64/2 5/13/2 48/114/2
f 3/7/3 7/22/3 8/24/3
f 1/1/4 6/21/4 13/35/4
f 44/99/5 1/1/5 13/35/5
f 5/16/6 26/62/6 10/29/6
f 9/28/7 12/31/7 15/37/7
f 11/30/8 16/38/8 20/48/8
f 8/25/9 14/36/9 12/33/9
f 10/29/10 26/62/10 16/38/10
f 10/29/11 16/38/11 11/30/11
f 15/37/12 12/31/12 18/41/12
f 16/38/13 26/62/13 19/44/13
f 24/58/14 44/99/14 13/35/14
f 21/49/15 17/39/15 12/32/15
f 17/39/16 21/49/16 22/52/16
f 19/43/17 28/66/17 20/46/17
f 19/45/18 26/63/18 27/65/18
f 44/99/19 29/69/19 34/78/19
f 36/82/20 33/77/20 27/65/20
f 28/67/21 32/75/21 30/71/21
f 28/67/22 31/74/22 32/75/22
f 32/76/23 35/81/23 30/73/23
f 32/75/24 31/74/24 37/84/24
f 35/81/25 34/79/25 29/68/25
f 35/81/26 38/85/26 34/79/26
f 35/81/27 37/83/28 41/93/29
f 34/79/30 43/97/30 47/109/30
f 37/83/31 39/86/31 41/93/31
f 38/85/32 41/93/32 42/96/32
f 36/82/33 40/90/33 39/87/33
f 39/88/34 40/89/34 45/100/34
f 42/96/35 50/119/35 43/97/35
f 45/100/36 49/117/36 41/94/36
f 44/99/37 47/111/37 1/1/37
f 42/95/38 46/103/38 50/120/38
f 45/101/39 48/113/39 5/14/39
f 47/110/40 50/121/40 6/19/40
f 49/116/41 3/7/41 46/104/41
f 46/105/42 2/3/42 50/122/42
f 49/115/43 5/15/43 4/10/43
f 6/19/44 1/2/44 47/110/44
f 3/7/45 49/116/45 4/11/45
f 3/7/46 4/11/46 7/22/46
f 11/30/47 7/23/47 5/16/47 10/29/47
f 2/4/48 9/26/48 6/20/48
f 4/12/49 5/16/49 7/23/49
f 21/50/50 12/33/50 14/36/50 20/48/50
f 6/21/51 9/28/51 13/35/51
f 7/23/52 11/30/52 14/36/52
f 8/25/53 7/23/53 14/36/53
f 8/25/54 12/33/54 9/27/54
f 9/27/55 2/5/55 3/8/55 8/25/55
f 13/35/56 9/28/56 15/37/56
f 14/36/57 11/30/57 20/48/57
f 13/35/58 15/37/58 24/58/58
f 28/67/59 30/71/59 21/51/59 20/47/59
f 18/42/60 12/34/60 17/40/60
f 24/58/61 15/37/61 18/41/61
f 16/38/62 19/44/62 20/48/62
f 18/41/63 22/55/63 24/58/63
f 18/42/64 17/40/64 22/53/64
f 24/58/65 22/55/65 23/57/65
f 24/58/66 23/57/66 29/69/66
f 24/58/67 29/69/67 44/99/67
f 19/45/68 27/65/68 28/67/68
f 22/54/69 21/51/69 30/71/69
f 22/55/70 30/72/70 23/57/70
f 27/65/71 26/63/71 36/82/71
f 23/56/72 25/61/73 29/70/74
f 26/63/75 40/90/75 36/82/75
f 25/59/76 23/57/76 30/72/76
f 27/65/77 33/77/77 31/74/77
f 28/67/78 27/65/78 31/74/78
f 25/60/79 30/73/79 35/81/79
f 32/76/80 37/83/80 35/81/80
f 25/61/73 35/80/81 29/70/74
f 31/74/82 33/77/82 36/82/82
f 31/74/83 36/82/83 39/87/83
f 37/84/84 31/74/84 39/87/84
f 38/85/85 35/81/27 41/93/29
f 34/78/86 47/111/86 44/99/86
f 34/79/87 38/85/87 43/97/87
f 38/85/88 42/96/88 43/97/88
f 42/96/89 41/93/89 46/106/89
f 39/88/90 45/100/90 41/94/90
f 45/101/91 40/91/91 48/113/91
f 47/112/92 43/98/92 50/123/92
f 41/94/93 49/117/93 46/107/93
f 40/92/94 26/64/94 48/114/94
f 45/102/95 5/17/95 49/118/95
f 2/6/96 46/108/96 3/9/96
f 51/124/97 54/129/97 97/206/97
f 98/207/98 76/170/98 56/133/98
f 54/129/99 53/127/99 99/209/99
f 55/131/100 61/143/100 100/211/100
f 52/125/101 57/134/101 51/124/101
f 52/125/102 56/132/102 58/135/102
f 57/134/103 59/138/103 54/129/103
f 53/128/104 60/142/104 55/131/104
f 57/134/105 58/135/105 62/144/105
f 53/127/106 59/138/106 60/140/106
f 76/170/107 64/148/107 56/133/107
f 60/142/108 68/154/108 61/143/108
f 62/145/109 63/147/109 59/139/109
f 63/146/110 67/153/110 60/142/110
f 64/149/111 65/150/111 62/145/111
f 100/211/112 68/154/112 84/181/112
f 63/147/113 65/150/113 66/151/113
f 71/159/114 74/166/114 67/153/114
f 72/162/115 69/156/115 65/150/115
f 74/166/116 75/169/116 68/154/116
f 72/163/117 77/172/117 69/155/117
f 72/163/118 76/170/118 88/189/118
f 78/174/119 82/179/119 74/167/119
f 74/167/120 82/179/120 75/168/120
f 77/173/121 79/175/121 73/165/121
f 82/178/122 92/194/122 75/169/122
f 78/174/123 80/176/123 81/177/123
f 78/174/124 81/177/124 82/179/124
f 83/180/125 80/176/125 79/175/125
f 82/179/126 86/185/126 92/193/126
f 83/180/127 85/182/127 87/187/127
f 83/180/128 87/187/128 80/176/128
f 88/189/129 89/190/129 85/183/129
f 86/184/130 87/188/130 91/192/130
f 86/184/131 91/192/131 90/191/131
f 89/190/132 94/199/132 87/186/132
f 89/190/133 98/207/133 94/199/133
f 94/198/134 95/200/134 91/192/134
f 90/191/135 91/192/135 93/196/135
f 95/200/136 96/204/136 91/192/136
f 93/197/137 100/211/137 92/194/137
f 84/181/138 92/194/138 100/211/138
f 93/196/139 96/204/139 99/208/139
f 94/199/140 98/207/140 52/126/140
f 93/196/141 99/208/141 55/130/141
f 95/201/142 52/125/142 51/124/142
f 54/129/143 51/124/143 57/134/143
f 52/125/144 58/135/144 57/134/144
f 53/127/145 54/129/145 59/138/145
f 55/131/146 60/142/146 61/143/146
f 57/134/147 62/144/147 59/138/147
f 60/141/148 59/139/148 63/147/148
f 56/133/149 64/148/149 58/136/149
f 100/211/150 61/143/150 68/154/150
f 58/137/151 64/149/151 62/145/151
f 76/170/152 72/163/152 64/148/152
f 60/142/153 67/153/153 68/154/153
f 62/145/154 65/150/154 63/147/154
f 63/147/155 66/151/155 67/152/155
f 66/151/156 71/160/156 67/152/156
f 64/149/157 72/162/157 65/150/157
f 67/153/158 74/166/158 68/154/158
f 73/164/159 70/158/159 69/156/159 77/171/159
f 71/160/160 66/151/160 70/158/160
f 68/154/161 75/169/161 84/181/161
f 73/165/162 78/174/162 71/161/162 70/157/162
f 97/206/163 96/203/163 95/201/163 51/124/163
f 71/161/164 78/174/164 74/167/164
f 72/163/165 88/189/165 77/172/165
f 78/174/166 73/165/166 79/175/166
f 75/169/167 92/194/167 84/181/167
f 78/174/168 79/175/168 80/176/168
f 77/172/169 88/189/169 85/183/169
f 77/173/170 85/182/170 83/180/170
f 79/175/171 77/173/171 83/180/171
f 81/177/172 80/176/172 86/185/172
f 82/179/173 81/177/173 86/185/173
f 85/183/174 89/190/174 87/186/174
f 86/184/175 90/191/175 92/195/175
f 86/185/176 80/176/176 87/187/176
f 89/190/177 88/189/177 98/207/177
f 87/188/178 94/198/178 91/192/178
f 88/189/179 76/170/179 98/207/179
f 69/156/180 70/158/180 66/151/180 65/150/180
f 90/191/181 93/196/181 92/195/181
f 93/196/182 91/192/182 96/204/182
f 99/208/183 96/204/183 97/205/183
f 95/202/184 94/199/184 52/126/184
f 100/211/185 93/197/185 55/131/185
f 99/209/186 97/206/186 54/129/186
f 98/207/187 56/133/187 52/126/187
f 55/131/188 99/210/188 53/128/188
